<?xml version="1.0" standalone="no"?><svg data-noselect="" 
  viewBox="124.21052631578999 75.87470852276502 552.57674050379 414" 
  width="552.57674050379" 
  height="414" 
  ref="svg_canvas" 
  preserveAspectRatio="none" 
  version="1.1" xmlns="http://www.w3.org/2000/svg" 
  style="background: #FFFFFF;">
    <defs></defs>
    <g id="shape_rqjy8kmZzg" class="brand_slogan"  ref="shape_rqjy8kmZzg" key="shape_rqjy8kmZzg" transform="translate(311.03421052632,256.36167409903504) rotate(0,137.13630002503,77.04916992187499) scale(1,1)" style="cursor:move;display:inline;opacity:1;" filter="">
            <g style="display:inline"><svg xmlns="http://www.w3.org/2000/svg" version="1.1" xmlns:xlink="http://www.w3.org/1999/xlink" width="311.6" height="154.09833984374998" viewBox="0 0 311.6 154.09833984374998" preserveAspectRatio="none" data-parent="shape_rqjy8kmZzg"><rect fill="rgba(0,0,0,0)" width="225" height="21" x="21.65" y="66.54916992187499"></rect><g data-width="224.33662343749995" transform="translate(21.65, 0)"><path d="M0.62-4.40L0.62-4.40L2.47-4.65Q2.55-2.88 3.14-2.22Q3.73-1.56 4.78-1.56L4.78-1.56Q5.55-1.56 6.11-1.92Q6.67-2.27 6.88-2.88Q7.09-3.49 7.09-4.82L7.09-4.82L7.09-15.50L9.14-15.50L9.14-4.94Q9.14-2.99 8.67-1.92Q8.20-0.86 7.18-0.30Q6.16 0.26 4.79 0.26L4.79 0.26Q2.75 0.26 1.66-0.91Q0.58-2.08 0.62-4.40Z" transform="translate(0 84.54916992187499) " fill="#0063dc" stroke="#0063dc" stroke-width="0.036" data-glyph-w="10.825" data-glyph-h="24.187109375" data-glyph-ascender="19.599169921875" data-glyph-descender="-4.587939453124999"></path><path d="M4.07 0L2.02 0L2.02-15.50L4.07-15.50L4.07 0Z" transform="translate(10.825 84.54916992187499) " fill="#0063dc" stroke="#0063dc" stroke-width="0.036" data-glyph-w="6.015063476562499" data-glyph-h="24.187109375" data-glyph-ascender="19.599169921875" data-glyph-descender="-4.587939453124999"></path><path d="M11.84-6.55L11.84-15.50L13.89-15.50L13.89-6.54Q13.89-4.21 13.36-2.83Q12.83-1.46 11.45-0.60Q10.07 0.26 7.83 0.26L7.83 0.26Q5.66 0.26 4.27-0.49Q2.89-1.24 2.29-2.66Q1.70-4.08 1.70-6.54L1.70-6.54L1.70-15.50L3.75-15.50L3.75-6.55Q3.75-4.54 4.13-3.58Q4.50-2.62 5.42-2.10Q6.33-1.59 7.65-1.59L7.65-1.59Q9.92-1.59 10.88-2.61Q11.84-3.64 11.84-6.55L11.84-6.55Z" transform="translate(16.8400634765625 84.54916992187499) " fill="#0063dc" stroke="#0063dc" stroke-width="0.036" data-glyph-w="15.6349365234375" data-glyph-h="24.187109375" data-glyph-ascender="19.599169921875" data-glyph-descender="-4.587939453124999"></path><path d="" transform="translate(32.474999999999994 84.54916992187499) " fill="#0063dc" stroke="#0063dc" stroke-width="0.036" data-glyph-w="8.6167" data-glyph-h="21.65" data-glyph-ascender="19.052" data-glyph-descender="-2.598"></path><path d="M2.56 0L0.10 0L6.09-8.08L0.80-15.50L3.25-15.50L6.06-11.52Q6.93-10.29 7.30-9.62L7.30-9.62Q7.82-10.47 8.53-11.39L8.53-11.39L11.65-15.50L13.88-15.50L8.44-8.19L14.30 0L11.77 0L7.87-5.53Q7.54-6.00 7.19-6.56L7.19-6.56Q6.67-5.72 6.45-5.40L6.45-5.40L2.56 0Z" transform="translate(41.091699999999996 84.54916992187499) " fill="#0063dc" stroke="#0063dc" stroke-width="0.036" data-glyph-w="14.440380859374999" data-glyph-h="24.187109375" data-glyph-ascender="19.599169921875" data-glyph-descender="-4.587939453124999"></path><path d="M4.07 0L2.02 0L2.02-15.50L4.07-15.50L4.07 0Z" transform="translate(55.53208085937499 84.54916992187499) " fill="#0063dc" stroke="#0063dc" stroke-width="0.036" data-glyph-w="6.015063476562499" data-glyph-h="24.187109375" data-glyph-ascender="19.599169921875" data-glyph-descender="-4.587939453124999"></path><path d="M2.15 0L-0.03 0L5.92-15.50L8.13-15.50L14.47 0L12.14 0L10.33-4.69L3.85-4.69L2.15 0ZM6.14-10.91L4.44-6.36L9.69-6.36L8.08-10.66Q7.34-12.61 6.98-13.87L6.98-13.87Q6.68-12.38 6.14-10.91L6.14-10.91Z" transform="translate(61.54714433593749 84.54916992187499) " fill="#0063dc" stroke="#0063dc" stroke-width="0.036" data-glyph-w="14.440380859374999" data-glyph-h="24.187109375" data-glyph-ascender="19.599169921875" data-glyph-descender="-4.587939453124999"></path><path d="" transform="translate(75.98752519531249 84.54916992187499) " fill="#0063dc" stroke="#0063dc" stroke-width="0.036" data-glyph-w="8.6167" data-glyph-h="21.65" data-glyph-ascender="19.052" data-glyph-descender="-2.598"></path><path d="M13.48-6.08L8.92-6.08L8.92-7.90L15.49-7.91L15.49-2.16Q13.98-0.95 12.37-0.34Q10.76 0.26 9.07 0.26L9.07 0.26Q6.79 0.26 4.92-0.71Q3.06-1.69 2.10-3.54Q1.15-5.39 1.15-7.67L1.15-7.67Q1.15-9.94 2.10-11.90Q3.04-13.86 4.82-14.81Q6.60-15.76 8.91-15.76L8.91-15.76Q10.59-15.76 11.95-15.22Q13.31-14.67 14.08-13.70Q14.85-12.73 15.25-11.16L15.25-11.16L13.40-10.66Q13.06-11.84 12.54-12.52Q12.02-13.19 11.06-13.60Q10.10-14.01 8.92-14.01L8.92-14.01Q7.52-14.01 6.49-13.58Q5.47-13.15 4.84-12.45Q4.21-11.76 3.86-10.92L3.86-10.92Q3.27-9.48 3.27-7.80L3.27-7.80Q3.27-5.73 3.98-4.33Q4.69-2.94 6.06-2.26Q7.42-1.59 8.95-1.59L8.95-1.59Q10.29-1.59 11.55-2.10Q12.82-2.61 13.48-3.19L13.48-3.19L13.48-6.08Z" transform="translate(84.60422519531248 84.54916992187499) " fill="#0063dc" stroke="#0063dc" stroke-width="0.036" data-glyph-w="16.8400634765625" data-glyph-h="24.187109375" data-glyph-ascender="19.599169921875" data-glyph-descender="-4.587939453124999"></path><path d="M11.84-6.55L11.84-15.50L13.89-15.50L13.89-6.54Q13.89-4.21 13.36-2.83Q12.83-1.46 11.45-0.60Q10.07 0.26 7.83 0.26L7.83 0.26Q5.66 0.26 4.27-0.49Q2.89-1.24 2.29-2.66Q1.70-4.08 1.70-6.54L1.70-6.54L1.70-15.50L3.75-15.50L3.75-6.55Q3.75-4.54 4.13-3.58Q4.50-2.62 5.42-2.10Q6.33-1.59 7.65-1.59L7.65-1.59Q9.92-1.59 10.88-2.61Q11.84-3.64 11.84-6.55L11.84-6.55Z" transform="translate(101.44428867187497 84.54916992187499) " fill="#0063dc" stroke="#0063dc" stroke-width="0.036" data-glyph-w="15.6349365234375" data-glyph-h="24.187109375" data-glyph-ascender="19.599169921875" data-glyph-descender="-4.587939453124999"></path><path d="M2.15 0L-0.03 0L5.92-15.50L8.13-15.50L14.47 0L12.14 0L10.33-4.69L3.85-4.69L2.15 0ZM6.14-10.91L4.44-6.36L9.69-6.36L8.08-10.66Q7.34-12.61 6.98-13.87L6.98-13.87Q6.68-12.38 6.14-10.91L6.14-10.91Z" transform="translate(117.07922519531247 84.54916992187499) " fill="#0063dc" stroke="#0063dc" stroke-width="0.036" data-glyph-w="14.440380859374999" data-glyph-h="24.187109375" data-glyph-ascender="19.599169921875" data-glyph-descender="-4.587939453124999"></path><path d="M3.62 0L1.65 0L1.65-15.50L3.75-15.50L11.89-3.33L11.89-15.50L13.86-15.50L13.86 0L11.76 0L3.62-12.18L3.62 0Z" transform="translate(131.51960605468747 84.54916992187499) " fill="#0063dc" stroke="#0063dc" stroke-width="0.036" data-glyph-w="15.6349365234375" data-glyph-h="24.187109375" data-glyph-ascender="19.599169921875" data-glyph-descender="-4.587939453124999"></path><path d="M13.48-6.08L8.92-6.08L8.92-7.90L15.49-7.91L15.49-2.16Q13.98-0.95 12.37-0.34Q10.76 0.26 9.07 0.26L9.07 0.26Q6.79 0.26 4.92-0.71Q3.06-1.69 2.10-3.54Q1.15-5.39 1.15-7.67L1.15-7.67Q1.15-9.94 2.10-11.90Q3.04-13.86 4.82-14.81Q6.60-15.76 8.91-15.76L8.91-15.76Q10.59-15.76 11.95-15.22Q13.31-14.67 14.08-13.70Q14.85-12.73 15.25-11.16L15.25-11.16L13.40-10.66Q13.06-11.84 12.54-12.52Q12.02-13.19 11.06-13.60Q10.10-14.01 8.92-14.01L8.92-14.01Q7.52-14.01 6.49-13.58Q5.47-13.15 4.84-12.45Q4.21-11.76 3.86-10.92L3.86-10.92Q3.27-9.48 3.27-7.80L3.27-7.80Q3.27-5.73 3.98-4.33Q4.69-2.94 6.06-2.26Q7.42-1.59 8.95-1.59L8.95-1.59Q10.29-1.59 11.55-2.10Q12.82-2.61 13.48-3.19L13.48-3.19L13.48-6.08Z" transform="translate(147.15454257812496 84.54916992187499) " fill="#0063dc" stroke="#0063dc" stroke-width="0.036" data-glyph-w="16.8400634765625" data-glyph-h="24.187109375" data-glyph-ascender="19.599169921875" data-glyph-descender="-4.587939453124999"></path><path d="" transform="translate(163.99460605468747 84.54916992187499) " fill="#0063dc" stroke="#0063dc" stroke-width="0.036" data-glyph-w="8.6167" data-glyph-h="21.65" data-glyph-ascender="19.052" data-glyph-descender="-2.598"></path><path d="M3.62 0L1.65 0L1.65-15.50L3.75-15.50L11.89-3.33L11.89-15.50L13.86-15.50L13.86 0L11.76 0L3.62-12.18L3.62 0Z" transform="translate(172.61130605468747 84.54916992187499) " fill="#0063dc" stroke="#0063dc" stroke-width="0.036" data-glyph-w="15.6349365234375" data-glyph-h="24.187109375" data-glyph-ascender="19.599169921875" data-glyph-descender="-4.587939453124999"></path><path d="M4.07 0L2.02 0L2.02-15.50L4.07-15.50L4.07 0Z" transform="translate(188.24624257812496 84.54916992187499) " fill="#0063dc" stroke="#0063dc" stroke-width="0.036" data-glyph-w="6.015063476562499" data-glyph-h="24.187109375" data-glyph-ascender="19.599169921875" data-glyph-descender="-4.587939453124999"></path><path d="M2.15 0L-0.03 0L5.92-15.50L8.13-15.50L14.47 0L12.14 0L10.33-4.69L3.85-4.69L2.15 0ZM6.14-10.91L4.44-6.36L9.69-6.36L8.08-10.66Q7.34-12.61 6.98-13.87L6.98-13.87Q6.68-12.38 6.14-10.91L6.14-10.91Z" transform="translate(194.26130605468745 84.54916992187499) " fill="#0063dc" stroke="#0063dc" stroke-width="0.036" data-glyph-w="14.440380859374999" data-glyph-h="24.187109375" data-glyph-ascender="19.599169921875" data-glyph-descender="-4.587939453124999"></path><path d="M3.62 0L1.65 0L1.65-15.50L3.75-15.50L11.89-3.33L11.89-15.50L13.86-15.50L13.86 0L11.76 0L3.62-12.18L3.62 0Z" transform="translate(208.70168691406246 84.54916992187499) " fill="#0063dc" stroke="#0063dc" stroke-width="0.036" data-glyph-w="15.6349365234375" data-glyph-h="24.187109375" data-glyph-ascender="19.599169921875" data-glyph-descender="-4.587939453124999"></path></g></svg></g>
        </g><g id="shape_awPVCCiLnv" class="brand_name"  ref="shape_awPVCCiLnv" key="shape_awPVCCiLnv" transform="translate(242.04726681958,-1.4175770317199863) rotate(0,224.96968508464,276.46) scale(1,1)" style="cursor:move;display:inline;opacity:1;" filter="">
            <g style="display:inline"><svg xmlns="http://www.w3.org/2000/svg" version="1.1" xmlns:xlink="http://www.w3.org/1999/xlink" width="581.96" height="552.92" viewBox="0 0 581.96 552.92" preserveAspectRatio="none" data-parent="shape_awPVCCiLnv"><rect fill="rgba(0,0,0,0)" width="279" height="75" x="75.74" y="238.95999999999998"></rect><g data-width="278.7232" transform="translate(75.74, 0)"><path d="M24.92-53.85L42.19-53.85L36.81-42.34L63.62-42.34L59.00-9.24L63.32-9.24L66.58-12.12L64.98-0.61L43.40-0.68L48.25-35.14L33.48-35.14L17.50-0.61L3.11-0.61L19.16-35.14L9.39-35.14L10.38-42.34L22.49-42.34L26.81-51.65L24.92-53.85Z" transform="translate(0 302.96) " fill="#0063dc" stroke="#0063dc" stroke-width="0.126" data-glyph-w="69.6808" data-glyph-h="98.462" data-glyph-ascender="75.74" data-glyph-descender="-22.722"></path><path d="M10.53-45.29L22.12-45.29L23.56-46.58L7.65-46.58L8.48-52.41L68.85-52.41L68.01-46.58L41.81-46.58L40.37-45.29L64.98-45.29L61.73-22.19L7.27-22.19L10.53-45.29ZM62.79 0.61L47.41 0.61L34.01-3.71L19.62 0.61L2.65 0.61L3.48-5.23L16.44-5.23L23.18-7.12L16.97-9.09L15.68-7.73L0.83-7.73L14.01-21.36L28.55-21.36L27.19-19.92L61.27-19.92L60.06-11.51L47.03-7.57L53.70-5.76L63.70-5.76L62.79 0.61ZM25.07-40.90L24.77-38.85L48.93-38.85L49.23-40.90L25.07-40.90ZM23.02-26.58L47.19-26.58L47.49-28.63L23.33-28.63L23.02-26.58ZM24.16-34.69L23.93-32.80L48.09-32.80L48.32-34.69L24.16-34.69ZM45.67-13.48L26.36-13.48L35.98-10.76L45.67-13.48Z" transform="translate(69.6808 302.96) " fill="#0063dc" stroke="#0063dc" stroke-width="0.126" data-glyph-w="69.6808" data-glyph-h="98.462" data-glyph-ascender="75.74" data-glyph-descender="-22.722"></path><path d="M6.06-30.07L30.52-30.07L33.48-50.90L30.98-53.78L48.25-53.78L44.91-30.07L66.50-30.07L65.52-22.95L56.80-22.95L54.84-8.48L62.03-8.48L65.29-11.36L63.70 0L39.08 0.08L42.41-22.95L29.39-22.95L16.21 0L1.82 0L15.00-22.95L5.07-22.95L6.06-30.07ZM48.09-32.27L54.68-48.02L52.72-50.22L67.86-50.22L60.29-32.27L48.09-32.27ZM25.45-50.22L27.95-32.27L15.75-32.27L13.48-48.09L11.66-50.22L25.45-50.22Z" transform="translate(139.3616 302.96) " fill="#0063dc" stroke="#0063dc" stroke-width="0.126" data-glyph-w="69.6808" data-glyph-h="98.462" data-glyph-ascender="75.74" data-glyph-descender="-22.722"></path><path d="M3.11-22.19L10.30-22.19L11.74-32.27L4.54-32.27L13.71-51.65L11.89-53.85L29.16-53.85L27.80-50.97L67.56-50.97L66.58-43.78L49.31-43.78L48.32-36.58L64.15-36.58L63.09-29.39L47.26-29.39L46.28-22.19L66.42-22.19L65.44-15.00L45.22-15.00L43.02 0.68L28.63 0.68L30.83-15.00L2.12-15.00L3.11-22.19ZM24.39-43.78L20.98-36.58L33.93-36.58L34.92-43.78L24.39-43.78ZM25.68-29.39L24.62-22.19L31.89-22.19L32.87-29.39L25.68-29.39Z" transform="translate(209.04240000000001 302.96) " fill="#0063dc" stroke="#0063dc" stroke-width="0.126" data-glyph-w="69.6808" data-glyph-h="98.462" data-glyph-ascender="75.74" data-glyph-descender="-22.722"></path></g></svg></g>
        </g><g id="shape_T4m9c7b9Wf" class=""  ref="shape_T4m9c7b9Wf" key="shape_T4m9c7b9Wf" transform="translate(204.21052631579,218.73311560241) rotate(0,80,64.141592920354) scale(1,1)" style="cursor:move;display:inline;opacity:1;" filter="">
            <g style="display:inline"><rect fill="rgba(0,0,0,0)" width="180" height="148.28318584070794" x="-10" y="-10"></rect><svg version="1.1" id="图层_1" xmlns="http://www.w3.org/2000/svg" xmlns:xlink="http://www.w3.org/1999/xlink" x="0px" y="0px" viewBox="0 0 56.5 45.3" style="enable-background:new 0 0 56.5 45.3;" xml:space="preserve" width="160" height="128.28318584070794" class="style-removed" preserveAspectRatio="none" data-parent="shape_T4m9c7b9Wf">

<g>
	<g>
		<g>
			<g>
				<path d="M26.2,42.5c2.7,1.2,2.7,1.4,2.7,1.5c-0.3,0.3-3.6-1.1-5-2.1c-0.2-0.1-0.2-0.2-0.2-0.2
					C23.8,41.6,23.9,41.5,26.2,42.5" fill="#0063DC" stroke-width="0"></path>
			</g>
		</g>
		<g>
			<g>
				<path d="M25.6,39.9c1.2,0.8,2.4,2,1.5,2.2c-1.1,0.2-4.4-1.5-4.7-2.9C22.4,38.3,24.1,38.8,25.6,39.9" fill="#0063DC" stroke-width="0"></path>
			</g>
		</g>
		<g>
			<g>
				<path d="M27.1,36.3c1.3,1.4,1.4,2.9-0.2,2.9c-1.7-0.1-4.3-2.1-3.6-3.7C24,34.4,25.9,35,27.1,36.3" fill="#0063DC" stroke-width="0"></path>
			</g>
		</g>
		<g>
			<g>
				<path d="M35.3,45c0.8,0,1.4-0.1,2-0.1c0.7,0,0.8,0,0.9,0c-0.1,0.2-2.1,0.6-5,0.2c-0.2,0-0.3,0-0.3-0.1
					c0.1,0,0.1,0,0.9,0C34.2,45,34.7,45,35.3,45" fill="#0063DC" stroke-width="0"></path>
			</g>
		</g>
		<g>
			<g>
				<path d="M33.3,44.1c2.2,0.3,2.6,0.3,2.7,0.4c-0.2,0.5-4.2,0.4-5.6-0.4c-0.1-0.1-0.3-0.2,0.1-0.3
					C31,43.8,32.4,44,33.3,44.1" fill="#0063DC" stroke-width="0"></path>
			</g>
		</g>
		<g>
			<g>
				<path d="M32.5,42.5c1.2,0.4,2.5,0.9,2,1.2c-0.9,0.4-5-0.1-5.5-1.3C29,41.7,30.4,41.8,32.5,42.5" fill="#0063DC" stroke-width="0"></path>
			</g>
		</g>
		<g>
			<g>
				<path d="M33.3,40c0.6,0.4,2,1.6,0.9,1.9c-1.6,0.4-5.1-1-4.7-2.4C30.1,38.7,31.9,39.1,33.3,40" fill="#0063DC" stroke-width="0"></path>
			</g>
		</g>
		<g>
			<g>
				<path d="M36,37c0.9,1.3,0.7,2.9-1.4,2.5c-1.8-0.3-3.6-2-2.5-3.4C33.2,35.1,35.1,35.7,36,37" fill="#0063DC" stroke-width="0"></path>
			</g>
		</g>
		<g>
			<g>
				<path d="M40.8,43.6c1.1-0.2,1.5-0.3,2.6-0.7c-0.9,0.5-4.4,1.6-5.8,1.4c0,0-0.1,0-0.1,0
					C37.6,44.3,37.6,44.3,40.8,43.6" fill="#0063DC" stroke-width="0"></path>
			</g>
		</g>
		<g>
			<g>
				<path d="M39.5,42.2c1.6,0.5,1.7,0.6,1.7,0.6c-0.3,0.4-4.9,0.2-5-0.7c0,0,0-0.1,0-0.1
					C36.3,41.8,36.8,41.4,39.5,42.2" fill="#0063DC" stroke-width="0"></path>
			</g>
		</g>
		<g>
			<g>
				<path d="M40.5,40.6c0.5,0.5,1.2,1.4,0.3,1.4c-1.5,0-4.1-1.1-3.3-2.1C38.1,39.3,39.5,39.6,40.5,40.6" fill="#0063DC" stroke-width="0"></path>
			</g>
		</g>
		<g>
			<g>
				<g>
					<path d="M21,5.4c0.4-0.5,0.7-0.6,0.8-0.7c-1,0.8-1.1,0.9-1.9,1.7l-0.6,0.6c-0.2,0.2-0.6,0.6-0.6,0.8c0,0,0,0,0,0
						C18.8,7.7,18.8,7.7,21,5.4z" fill="#0063DC" stroke-width="0"></path>
				</g>
			</g>
			<g>
				<g>
					<path d="M24.3,3.2c0.3-0.4,0.4-0.4,0.4-0.4c-0.9,0.5-1.1,0.6-1.9,1.2c-0.7,0.5-1,0.9-1,1
						C21.8,5.2,23,4.5,24.3,3.2z" fill="#0063DC" stroke-width="0"></path>
				</g>
			</g>
			<g>
				<g>
					<path d="M27.4,1.6c0-0.1-0.1,0-0.2,0c-0.2,0.1-0.4,0.2-0.5,0.2c-0.3,0.1-0.7,0.3-0.9,0.4
						c-0.6,0.3-0.5,0.4-0.5,0.5C25.5,2.9,27.4,1.9,27.4,1.6z" fill="#0063DC" stroke-width="0"></path>
				</g>
			</g>
			<g>
				<g>
					<path d="M29.9,0.7c0,0,0,0-0.2,0c0,0-0.1,0-0.1,0l0,0c-0.3,0.1-0.3,0.1-1,0.3c-0.2,0.1-0.5,0.2-0.7,0.3
						c0,0,0.1,0,0.3,0C29.3,1.1,29.9,0.8,29.9,0.7z" fill="#0063DC" stroke-width="0"></path>
				</g>
			</g>
			<g>
				<g>
					<path d="M15.6,13.1c0.2-0.6,0.5-1.5,0.5-1.8c0,0,0,0,0,0c-0.1,0-0.1,0.1-0.2,0.3c-0.2,0.3-0.2,0.4-0.4,0.8
						l-0.2,0.4c-0.2,0.5-0.5,1.2-0.7,1.7c-0.1,0.1-0.5,1.3-0.5,1.7c0,0,0.1,0.1,0.1,0.1C14.4,16.2,15.1,14.6,15.6,13.1z" fill="#0063DC" stroke-width="0"></path>
				</g>
			</g>
			<g>
				<g>
					<path d="M16.5,12.4c0.3,0.7,2-1.1,2.7-3.1v0c0.1-0.4,0.2-0.8,0.2-1c0-0.5-0.3-0.5-0.9,0.1
						C17.2,9.7,16.3,11.8,16.5,12.4z" fill="#0063DC" stroke-width="0"></path>
				</g>
			</g>
			<g>
				<g>
					<path d="M24,5.7c0.2-0.7-0.3-1.4-1.7-0.4c-1.5,1.1-2.2,2.6-1.9,3.1C21.1,9.3,23.7,7.3,24,5.7z" fill="#0063DC" stroke-width="0"></path>
				</g>
			</g>
			<g>
				<g>
					<path d="M28.9,2.9c-0.1-0.5-1.1-0.8-2.4-0.2c-1.4,0.8-1.7,1.8-1,2.2C26.6,5.5,29.3,4,28.9,2.9z" fill="#0063DC" stroke-width="0"></path>
				</g>
			</g>
			<g>
				<g>
					<path d="M32.1,2.3c1.1-0.3,1.6-0.9,1-1.3c-0.5-0.3-1.9-0.4-3,0c-0.1,0.1-0.4,0.2-0.6,0.4
						C29.2,2.1,30.5,2.7,32.1,2.3z" fill="#0063DC" stroke-width="0"></path>
				</g>
			</g>
			<g>
				<g>
					<path d="M36.8,0.6c0.3-0.2,0-0.4-0.7-0.5c-1.1-0.2-2.8-0.1-3.4,0c-0.1,0-0.1,0-0.2,0.1C32.8,0.6,36,1,36.8,0.6z" fill="#0063DC" stroke-width="0"></path>
				</g>
			</g>
			<g>
				<g>
					<path d="M17.5,13.2c-1.4,1.5-1.8,3.9-1,4.7c1,1.1,3-1.4,3.1-3.7C19.6,13,18.8,12,17.5,13.2z" fill="#0063DC" stroke-width="0"></path>
				</g>
			</g>
			<g>
				<g>
					<path d="M22.5,9c-1.8,1.4-2.2,3.4-1.3,4.1c1.4,1.1,4.5-1.3,4.3-3.4C25.4,8.7,24.3,7.8,22.5,9z" fill="#0063DC" stroke-width="0"></path>
				</g>
			</g>
			<g>
				<g>
					<path d="M31.8,6c-0.3-0.9-1.7-1.7-3.6-0.7c-1.8,1.1-1.9,2.8-0.8,3.4C29.2,9.7,32.3,7.8,31.8,6z" fill="#0063DC" stroke-width="0"></path>
				</g>
			</g>
			<g>
				<g>
					<path d="M33.6,2.7c-0.1,0.1-0.3,0.2-0.5,0.3c-1.1,0.9-0.4,2.3,1.5,2.6c2,0.3,3.7-1,2.8-2.1
						C36.8,2.6,35,2.1,33.6,2.7z" fill="#0063DC" stroke-width="0"></path>
				</g>
			</g>
			<g>
				<g>
					<path d="M41.7,3.3c0.9-0.2,1-0.8,0.2-1.4c-0.9-0.7-2.9-1.2-4-0.9c-0.2,0.1-0.3,0.1-0.4,0.2
						C36.8,2.1,39.7,3.8,41.7,3.3z" fill="#0063DC" stroke-width="0"></path>
				</g>
			</g>
			<g>
				<g>
					<path d="M45.5,2.5C45.5,2.5,45.5,2.5,45.5,2.5c-1.3-0.8-2.6-1.4-4-1.8c-0.6-0.1-0.8-0.2-0.9-0.2c0,0-0.1,0-0.1,0
						C40.5,1,44.8,2.8,45.5,2.5z" fill="#0063DC" stroke-width="0"></path>
				</g>
			</g>
			<g>
				<g>
					<path d="M21.9,22.1c0.1-0.6,0.2-1.2,0-1.9c-0.4-1.7-1.8-2.6-3.3-1.2c-0.2,0.2-0.4,0.5-0.5,0.7
						c0.4,0.3,0.8,0.6,1.2,0.9C20.1,21.1,20.9,21.6,21.9,22.1z" fill="#0063DC" stroke-width="0"></path>
				</g>
			</g>
			<g>
				<g>
					<path d="M23.8,18.9c2,1.3,5.2-1.2,4.7-3.8c-0.3-1.4-1.9-2.6-4.1-1.2C22.4,15.6,22.4,18,23.8,18.9z" fill="#0063DC" stroke-width="0"></path>
				</g>
			</g>
			<g>
				<g>
					<path d="M30.6,14c2.2,1.4,5.5-0.7,4.9-3.1c-0.3-1.3-2.2-2.4-4.3-1.3C29.1,10.9,29.2,13.1,30.6,14z" fill="#0063DC" stroke-width="0"></path>
				</g>
			</g>
			<g>
				<g>
					<path d="M42,7.8c-0.5-1.2-2.4-2.3-4.4-1.5c-2,1-1.5,3.3,0.5,4.1C40.4,11.3,42.8,9.7,42,7.8z" fill="#0063DC" stroke-width="0"></path>
				</g>
			</g>
			<g>
				<g>
					<path d="M43.1,4.2c-0.1,0-0.2,0.1-0.3,0.1c-1.3,0.8,0.4,3.2,2.6,3.7c1.8,0.4,2.8-0.6,1.9-2
						C46.5,5,44.6,3.8,43.1,4.2z" fill="#0063DC" stroke-width="0"></path>
				</g>
			</g>
			<g>
				<g>
					<path d="M50.9,7.1c-1.1-1.4-2.4-2.6-3.8-3.6c-0.1,0-0.2,0-0.3,0c-0.1,0-0.2,0-0.2,0.1C46.1,4.2,49.5,7.1,50.9,7.1
						z" fill="#0063DC" stroke-width="0"></path>
				</g>
			</g>
			<g>
				<g>
					<path d="M18.9,34.8c-0.6-0.6-1.7-1.4-1.7-0.4c0.2,1.6,2.6,4.1,3.6,4.2c0.8,0.1,0.1-1.6-1.1-3
						C19.4,35.3,19.1,35,18.9,34.8z" fill="#0063DC" stroke-width="0"></path>
				</g>
			</g>
			<g>
				<g>
					<path d="M32.5,21.5c-0.4-1.6-2.4-2.9-4.6-1.5c-1.7,1.4-1.7,3.4-0.7,4.6c0.7,0.3,1.5,0.6,2.3,0.9
						C31.4,25.5,33,23.6,32.5,21.5z" fill="#0063DC" stroke-width="0"></path>
				</g>
			</g>
			<g>
				<g>
					<path d="M34.6,20.5c2.3,1.5,5.4-0.5,4.9-3.1v0c-0.3-1.6-2.2-3.1-4.5-1.9C32.8,16.8,33,19.4,34.6,20.5z" fill="#0063DC" stroke-width="0"></path>
				</g>
			</g>
			<g>
				<g>
					<path d="M14.1,16.4C14.1,16.4,14.1,16.4,14.1,16.4c0-0.1,0-0.1,0-0.1C14,16.4,14,16.4,14.1,16.4z" fill="#0063DC" stroke-width="0"></path>
				</g>
			</g>
			<g>
				<g>
					<path d="M14.8,28.9c-0.3-0.1-0.6-0.3-0.9-0.4c0.4,1.8,1.7,4.9,2.1,4.9c0.3,0.1,0-1.7-0.8-3.5
						C15.1,29.5,15,29.2,14.8,28.9z" fill="#0063DC" stroke-width="0"></path>
				</g>
			</g>
			<g>
				<g>
					<path d="M18.2,30.3c-0.6,1.7,1,4.2,2.5,4.6c1.6,0.4,1.9-1.6,1-3.3C20.5,31.2,19.3,30.7,18.2,30.3z" fill="#0063DC" stroke-width="0"></path>
				</g>
			</g>
			<g>
				<g>
					<path d="M28.4,35.4c1.5,0.5,2.5-0.2,2.8-1.3c-1.8-0.4-3.5-0.8-5.1-1.2C26.3,34.1,27.3,35.1,28.4,35.4z" fill="#0063DC" stroke-width="0"></path>
				</g>
			</g>
		</g>
		<g>
			<g>
				<path d="M15,6.1c0,0-14.1-2.6-15,6.3s23.4,24.1,56.4,22.2c0,0-28.1-4.8-40.2-12.9C4.9,14.1,5.6,8.1,15,6.1z" fill="#0063DC" stroke-width="0"></path>
			</g>
		</g>
	</g>
</g>
</svg></g>
        </g>
  </svg>