<svg data-noselect="" viewBox="113.83967391304347 69.6655599977615 562.4027827378787 422" width="562.4027827378787" height="422" ref="svg_canvas" preserveAspectRatio="none" version="1.1" xmlns="http://www.w3.org/2000/svg" style="background: rgb(255, 255, 255);" class="style-removed">
    <defs></defs>
    <g id="shape_a1N99IJpXX" class="" ref="shape_a1N99IJpXX" key="shape_a1N99IJpXX" transform="translate(193.83967391304347,167) rotate(0,89.34174790584925,113.6655599977615) scale(1,1)" filter="" cursor="move" display="inline" opacity="1">
            <g display="inline"><rect fill="rgba(0,0,0,0)" width="198.6834958116985" height="247.331119995523" x="-10" y="-10"></rect><svg version="1.1" id="图层_1" xmlns="http://www.w3.org/2000/svg" xmlns:xlink="http://www.w3.org/1999/xlink" x="0px" y="0px" width="178.6834958116985" height="227.331119995523" viewBox="0 0 115.7 147.2" enable-background="new 0 0 115.7 147.2" xml:space="preserve" class="style-removed" preserveAspectRatio="none" data-parent="shape_a1N99IJpXX">
<g stop-color="rgb(81, 192, 229)">
	<g stop-color="rgb(81, 192, 229)">
		<g stop-color="rgb(81, 192, 229)">
			
				<linearGradient id="SVGID_1__mMNUoBixDs" gradientUnits="userSpaceOnUse" x1="-628.4714" y1="272.2159" x2="-628.4586" y2="272.2159" gradientTransform="matrix(0.9447 -0.328 0.328 0.9447 546.9102 -381.5832)" stop-color="rgb(81, 192, 229)">
				<stop offset="0" stop-color="rgb(114, 242, 151)"></stop>
				<stop offset="1" stop-color="rgb(81, 192, 229)"></stop>
			</linearGradient>
			<path fill="url(#SVGID_1__mMNUoBixDs)" d="M42.5,81.7L42.5,81.7L42.5,81.7C42.5,81.7,42.5,81.7,42.5,81.7z" stroke-width="0"></path>
			
				<linearGradient id="SVGID_2__djiIF11fMr" gradientUnits="userSpaceOnUse" x1="-635.2884" y1="306.8062" x2="-633.8054" y2="285.889" gradientTransform="matrix(0.9447 -0.328 0.328 0.9447 546.9102 -381.5832)" stop-color="rgb(81, 192, 229)">
				<stop offset="0" stop-color="rgb(114, 242, 151)"></stop>
				<stop offset="1" stop-color="rgb(81, 192, 229)"></stop>
			</linearGradient>
			<path fill="url(#SVGID_2__djiIF11fMr)" d="M39.3,106C39.3,106,39.3,106,39.3,106c-0.5,0.9-0.8,2-0.8,3.1c-0.1,3.5,2.5,6.5,5.9,7
				c3.8,0.6,7.4-2.1,7.8-5.9c0.3-2.2-0.5-4.2-1.9-5.7l0,0c0,0,0,0,0,0c-0.1-0.2-0.3-0.3-0.5-0.4c-1.6-1.5-6.4-7-7.4-15.5
				C42.6,90.2,43,100.7,39.3,106z" stroke-width="0"></path>
		</g>
		<g stop-color="rgb(81, 192, 229)">
			
				<linearGradient id="SVGID_3__gAnjpJALzx" gradientUnits="userSpaceOnUse" x1="-628.4714" y1="272.2159" x2="-628.4586" y2="272.2159" gradientTransform="matrix(0.9447 -0.328 0.328 0.9447 546.9102 -381.5832)" stop-color="rgb(81, 192, 229)">
				<stop offset="0" stop-color="rgb(114, 242, 151)"></stop>
				<stop offset="1" stop-color="rgb(81, 192, 229)"></stop>
			</linearGradient>
			<path fill="url(#SVGID_3__gAnjpJALzx)" d="M42.5,81.7L42.5,81.7L42.5,81.7C42.5,81.7,42.5,81.7,42.5,81.7z" stroke-width="0"></path>
			
				<linearGradient id="SVGID_4__d95s2er3az" gradientUnits="userSpaceOnUse" x1="-667.9573" y1="271.7687" x2="-594.2787" y2="258.8645" gradientTransform="matrix(0.9447 -0.328 0.328 0.9447 546.9102 -381.5832)" stop-color="rgb(81, 192, 229)">
				<stop offset="3.942397e-02" stop-color="rgb(114, 242, 151)"></stop>
				<stop offset="1" stop-color="rgb(81, 192, 229)"></stop>
			</linearGradient>
			<path fill="url(#SVGID_4__d95s2er3az)" d="M0.1,76.9c-1,11.1,7.1,21.3,18.2,22.9c5.1,0.7,9.9-0.3,14-2.8c2.6-1.5,6-0.6,7.4,2
				c0,0,0,0.1,0,0.1c1.7,3.4-0.2,6.6-0.3,6.8c3.7-5.3,3.2-15.8,3.1-17.4c-0.3-2.1-0.3-4.4,0-6.9l0,0c0,0,0,0,0,0l0,0
				C46.9,51.2,75.6,53.2,83,54.3c-24-5.6-38.6,2.7-60.2,3.2C11.3,56.6,1.1,65.1,0.1,76.9z" stroke-width="0"></path>
			
				<linearGradient id="SVGID_5__YiJLltUh2G" gradientUnits="userSpaceOnUse" x1="-629.2351" y1="247.9525" x2="-539.114" y2="230.4694" gradientTransform="matrix(0.9447 -0.328 0.328 0.9447 546.9102 -381.5832)" stop-color="rgb(81, 192, 229)">
				<stop offset="0" stop-color="rgb(114, 242, 151)"></stop>
				<stop offset="1" stop-color="rgb(81, 192, 229)"></stop>
			</linearGradient>
			<path fill="url(#SVGID_5__YiJLltUh2G)" d="M92.9,0.4C77.5-2.2,63.1,8.5,61.1,23.9c0,0.2,0,0.3,0,0.5c-0.5,3.8-4.8,30.5-38.2,33.1l0,0
				C44.4,57,59.1,48.7,83,54.3c0.6,0.1,1.2,0.2,1.8,0.3c15.4,2,29.4-9.2,30.8-24.7C116.9,15.7,106.9,2.7,92.9,0.4z" stroke-width="0"></path>
		</g>
	</g>
	
		<linearGradient id="SVGID_6__UtcdMUnU6j" gradientUnits="userSpaceOnUse" x1="667.8522" y1="-3191.2024" x2="693.2859" y2="-3191.2024" gradientTransform="matrix(-0.2885 0.9575 -0.9575 -0.2885 -2803.3938 -1437.838)" stop-color="rgb(81, 192, 229)">
		<stop offset="0" stop-color="rgb(114, 242, 151)"></stop>
		<stop offset="1" stop-color="rgb(81, 192, 229)"></stop>
	</linearGradient>
	<circle fill="url(#SVGID_6__UtcdMUnU6j)" cx="55.8" cy="134.5" r="12.7" stroke-width="0"></circle>
</g>
</svg></g>
        </g><g id="shape_TWkm28u9Fo" class="brand_name" ref="shape_TWkm28u9Fo" key="shape_TWkm28u9Fo" transform="translate(213.88245665092222,16.037793948999933) rotate(0,233.1562263206627,274.58) scale(1,1)" filter="" cursor="move" display="inline" opacity="1">
            <g display="inline"><svg xmlns="http://www.w3.org/2000/svg" version="1.1" xmlns:xlink="http://www.w3.org/1999/xlink" width="611.44" height="549.16" viewBox="0 0 611.44 549.16" preserveAspectRatio="none" data-parent="shape_TWkm28u9Fo"><rect fill="rgba(0,0,0,0)" width="306" height="91" x="76.36" y="229.07999999999998"></rect><g data-width="305.44" transform="translate(76.36, 0)"><path d="M59.88-46.31L31.77-46.31L31.77-60.92L22.67-60.92L22.67-46.31L3.28-46.31L3.28-40.94L22.52-40.94Q21.92-26.03 18.05-17.23L18.05-17.23Q14.02-8.05 2.09 2.83L2.09 2.83L5.44 6.64Q20.36-2.76 25.88-13.42L25.88-13.42Q31.02-23.34 31.69-40.94L31.69-40.94L50.78-40.94L50.78-3.06Q50.78 0.15 53.02 2.61L53.02 2.61Q55.41 5.15 58.99 5.15L58.99 5.15L72.18 5.15L74.27-2.46L62.86-2.46Q59.88-2.46 59.88-6.11L59.88-6.11L59.88-46.31Z" transform="translate(0 302.08) " fill="rgb(58, 179, 219)" stroke="rgb(58, 58, 219)" stroke-width="0.127" data-glyph-w="76.36" data-glyph-h="74.5703125" data-glyph-ascender="65.621875" data-glyph-descender="-8.9484375"></path><path d="M73.15-53.02L73.15-58.39L3.28-58.39L3.28-53.02L29.98-53.02Q29.23-51.23 28.19-49.29L28.19-49.29L9.62-49.29L9.62-21.03L17.37-21.03Q10.37-12.83 2.09-7.61L2.09-7.61L5.00-3.36Q11.56-6.19 17.60-10.66L17.60-10.66Q23.12-6.41 29.75-3.13L29.75-3.13Q15.59 1.34 3.80 2.54L3.80 2.54L6.34 6.64Q24.16 5.07 38.85 0.75L38.85 0.75Q54.29 6.26 68.01 6.64L68.01 6.64L73.15-0.82Q61.82-1.57 51.30-3.73L51.30-3.73Q61.67-8.28 66.14-12.38L66.14-12.38L66.14-17.67L25.65-17.67Q27.59-19.69 28.63-21.03L28.63-21.03L66.74-21.03L66.74-49.29L37.36-49.29Q39.22-51.38 40.19-53.02L40.19-53.02L73.15-53.02ZM24.46-12.38L51.38-12.38Q46.01-9.32 39.60-6.64L39.60-6.64Q31.10-9.17 24.46-12.38L24.46-12.38ZM18.72-41.09L18.72-44.00L57.64-44.00L57.64-41.09L18.72-41.09ZM18.72-33.71L18.72-36.61L57.64-36.61L57.64-33.71L18.72-33.71ZM18.72-26.40L18.72-29.31L57.64-29.31L57.64-26.40L18.72-26.40Z" transform="translate(76.36 302.08) " fill="rgb(58, 179, 219)" stroke="rgb(58, 58, 219)" stroke-width="0.127" data-glyph-w="76.36" data-glyph-h="74.5703125" data-glyph-ascender="65.621875" data-glyph-descender="-8.9484375"></path><path d="M33.63-34.30L3.28-34.30L3.28-28.93L21.70-28.93Q21.70-6.34 2.09 2.46L2.09 2.46L5.00 6.64Q17.90 2.46 23.86-5.07L23.86-5.07Q30.80-13.72 30.80-28.93L30.80-28.93L45.56-28.93L45.56-3.65Q45.56-0.15 47.95 2.46L47.95 2.46Q50.56 5.15 54.29 5.15L54.29 5.15L72.18 5.15L74.27-2.46L58.24-2.46Q56.82-2.46 55.78-3.50L55.78-3.50Q54.66-4.55 54.66-6.11L54.66-6.11L54.66-28.93L73.15-28.93L73.15-34.30L42.73-34.30L42.73-60.92L33.63-60.92L33.63-34.30ZM16.93-52.50L16.93-52.50Q24.24-46.31 27.44-41.39L27.44-41.39L19.31-36.39Q13.50-45.79 5.89-55.11L5.89-55.11L10.22-57.72Q10.74-57.72 16.93-52.50ZM62.42-57.94L70.47-53.62Q64.88-44.59 53.02-36.39L53.02-36.39L49.29-39.67Q56.60-47.65 62.42-57.94L62.42-57.94Z" transform="translate(152.72 302.08) " fill="rgb(58, 179, 219)" stroke="rgb(58, 58, 219)" stroke-width="0.127" data-glyph-w="76.36" data-glyph-h="74.5703125" data-glyph-ascender="65.621875" data-glyph-descender="-8.9484375"></path><path d="M18.94-61.74L27.89-59.28Q27.22-57.34 25.73-54.36L25.73-54.36L71.74-54.36L71.74-49.07L46.98-49.07L46.98-34.90L69.80-34.90L69.80-29.53L46.98-29.53L46.98-13.87L73.15-13.87L73.15-8.58L46.98-8.58L46.98 5.89L37.88 5.89L37.88-8.58L3.28-8.58L3.28-13.87L12.68-13.87L12.68-34.90L37.88-34.90L37.88-49.07L22.74-49.07Q15.44-37.21 5.00-30.42L5.00-30.42L2.09-34.60Q12.53-45.49 18.94-61.74L18.94-61.74ZM21.77-29.53L21.77-13.87L37.88-13.87L37.88-29.53L21.77-29.53Z" transform="translate(229.07999999999998 302.08) " fill="rgb(58, 179, 219)" stroke="rgb(58, 58, 219)" stroke-width="0.127" data-glyph-w="76.36" data-glyph-h="74.5703125" data-glyph-ascender="65.621875" data-glyph-descender="-8.9484375"></path></g></svg></g>
        </g><g id="shape_6hxZExbxrt" class="brand_slogan" ref="shape_6hxZExbxrt" key="shape_6hxZExbxrt" transform="translate(263.6637532497509,242.15060547373645) rotate(0,154.08478964786113,103.19) scale(1,1)" filter="" cursor="move" display="inline" opacity="1">
            <g display="inline"><svg xmlns="http://www.w3.org/2000/svg" version="1.1" xmlns:xlink="http://www.w3.org/1999/xlink" width="398.92" height="206.38" viewBox="0 0 398.92 206.38" preserveAspectRatio="none" data-parent="shape_6hxZExbxrt"><rect fill="rgba(0,0,0,0)" width="284" height="34" x="28.73" y="86.19"></rect><g data-width="283.867438359375" transform="translate(28.73, 0)"><path d="M4.91-8.32L4.91-8.32L4.91-23.34L8.64-23.34L8.64-8.32Q8.64-6.09 7.07-4.52L7.07-4.52Q5.50-2.95 3.27-2.95L3.27-2.95Q1.63-2.95 0.28-3.86L0.28-3.86L2.30-6.99Q2.74-6.66 3.27-6.66L3.27-6.66Q3.96-6.66 4.43-7.15L4.43-7.15Q4.91-7.63 4.91-8.32Z" transform="translate(0 112.19) " fill="rgb(58, 179, 219)" stroke="rgb(58, 58, 219)" stroke-width="0.048" data-glyph-w="10.0302490234375" data-glyph-h="29.936435546875" data-glyph-ascender="24.07259765625" data-glyph-descender="-5.863837890625"></path><path d="M5.12-3.31L5.12-23.34L1.40-23.34L1.40-3.31L5.12-3.31Z" transform="translate(10.0302490234375 112.19) " fill="rgb(58, 179, 219)" stroke="rgb(58, 58, 219)" stroke-width="0.048" data-glyph-w="6.5231689453125" data-glyph-h="29.936435546875" data-glyph-ascender="24.07259765625" data-glyph-descender="-5.863837890625"></path><path d="M13.43-23.34L17.14-23.34L17.14-9.75Q17.14-6.93 14.84-4.94L14.84-4.94Q12.54-2.95 9.27-2.95L9.27-2.95Q6.02-2.95 3.70-4.94L3.70-4.94Q1.40-6.93 1.40-9.75L1.40-9.75L1.40-23.34L5.12-23.34L5.12-9.75Q5.12-8.47 6.34-7.58L6.34-7.58Q7.56-6.66 9.27-6.66L9.27-6.66Q11.00-6.66 12.20-7.58L12.20-7.58Q13.43-8.47 13.43-9.75L13.43-9.75L13.43-23.34Z" transform="translate(16.55341796875 112.19) " fill="rgb(58, 179, 219)" stroke="rgb(58, 58, 219)" stroke-width="0.048" data-glyph-w="18.545439453125" data-glyph-h="29.936435546875" data-glyph-ascender="24.07259765625" data-glyph-descender="-5.863837890625"></path><path d="" transform="translate(35.098857421874996 112.19) " fill="rgb(58, 179, 219)" stroke="rgb(58, 58, 219)" stroke-width="0.048" data-glyph-w="11.43454" data-glyph-h="28.73" data-glyph-ascender="25.282400000000003" data-glyph-descender="-3.4476000000000004"></path><path d="M12.61-13.72L19.74-23.34L15.11-23.34L10.30-16.85L5.50-23.34L0.87-23.34L7.98-13.72L0.28-3.31L4.91-3.31L10.30-10.59L15.68-3.31L20.31-3.31L12.61-13.72Z" transform="translate(46.533397421874994 112.19) " fill="rgb(58, 179, 219)" stroke="rgb(58, 58, 219)" stroke-width="0.048" data-glyph-w="20.59357421875" data-glyph-h="29.936435546875" data-glyph-ascender="24.07259765625" data-glyph-descender="-5.863837890625"></path><path d="M5.12-3.31L5.12-23.34L1.40-23.34L1.40-3.31L5.12-3.31Z" transform="translate(67.12697164062499 112.19) " fill="rgb(58, 179, 219)" stroke="rgb(58, 58, 219)" stroke-width="0.048" data-glyph-w="6.5231689453125" data-glyph-h="29.936435546875" data-glyph-ascender="24.07259765625" data-glyph-descender="-5.863837890625"></path><path d="M6.12-7.81L14.48-7.81L16.30-3.31L20.31-3.31L12.22-23.34L8.37-23.34L0.28-3.31L4.29-3.31L6.12-7.81ZM12.98-11.53L7.62-11.53L10.30-18.17L12.98-11.53Z" transform="translate(73.65014058593749 112.19) " fill="rgb(58, 179, 219)" stroke="rgb(58, 58, 219)" stroke-width="0.048" data-glyph-w="20.59357421875" data-glyph-h="29.936435546875" data-glyph-ascender="24.07259765625" data-glyph-descender="-5.863837890625"></path><path d="" transform="translate(94.2437148046875 112.19) " fill="rgb(58, 179, 219)" stroke="rgb(58, 58, 219)" stroke-width="0.048" data-glyph-w="11.43454" data-glyph-h="28.73" data-glyph-ascender="25.282400000000003" data-glyph-descender="-3.4476000000000004"></path><path d="M10.49-15.18L21.42-15.18Q21.59-14.27 21.59-13.33L21.59-13.33Q21.59-9.02 18.55-5.99L18.55-5.99Q15.52-2.95 11.21-2.95L11.21-2.95Q6.92-2.95 3.87-5.99L3.87-5.99Q0.84-9.02 0.84-13.33L0.84-13.33Q0.84-17.62 3.87-20.66L3.87-20.66Q6.92-23.71 11.21-23.71L11.21-23.71Q16.05-23.71 19.16-19.99L19.16-19.99L16.31-17.61Q14.31-19.98 11.21-19.98L11.21-19.98Q8.46-19.98 6.51-18.03L6.51-18.03Q4.56-16.08 4.56-13.33L4.56-13.33Q4.56-10.56 6.51-8.61L6.51-8.61Q8.46-6.66 11.21-6.66L11.21-6.66Q13.97-6.66 15.92-8.61L15.92-8.61Q17.17-9.86 17.62-11.46L17.62-11.46L10.49-11.46L10.49-15.18Z" transform="translate(105.6782548046875 112.19) " fill="rgb(58, 179, 219)" stroke="rgb(58, 58, 219)" stroke-width="0.048" data-glyph-w="22.431284179687502" data-glyph-h="29.936435546875" data-glyph-ascender="24.07259765625" data-glyph-descender="-5.863837890625"></path><path d="M13.43-23.34L17.14-23.34L17.14-9.75Q17.14-6.93 14.84-4.94L14.84-4.94Q12.54-2.95 9.27-2.95L9.27-2.95Q6.02-2.95 3.70-4.94L3.70-4.94Q1.40-6.93 1.40-9.75L1.40-9.75L1.40-23.34L5.12-23.34L5.12-9.75Q5.12-8.47 6.34-7.58L6.34-7.58Q7.56-6.66 9.27-6.66L9.27-6.66Q11.00-6.66 12.20-7.58L12.20-7.58Q13.43-8.47 13.43-9.75L13.43-9.75L13.43-23.34Z" transform="translate(128.109538984375 112.19) " fill="rgb(58, 179, 219)" stroke="rgb(58, 58, 219)" stroke-width="0.048" data-glyph-w="18.545439453125" data-glyph-h="29.936435546875" data-glyph-ascender="24.07259765625" data-glyph-descender="-5.863837890625"></path><path d="M6.12-7.81L14.48-7.81L16.30-3.31L20.31-3.31L12.22-23.34L8.37-23.34L0.28-3.31L4.29-3.31L6.12-7.81ZM12.98-11.53L7.62-11.53L10.30-18.17L12.98-11.53Z" transform="translate(146.6549784375 112.19) " fill="rgb(58, 179, 219)" stroke="rgb(58, 58, 219)" stroke-width="0.048" data-glyph-w="20.59357421875" data-glyph-h="29.936435546875" data-glyph-ascender="24.07259765625" data-glyph-descender="-5.863837890625"></path><path d="M13.43-10.31L13.43-23.34L17.14-23.34L17.14-3.31L13.48-3.31L5.12-16.34L5.12-3.31L1.40-3.31L1.40-23.34L5.06-23.34L13.43-10.31Z" transform="translate(167.24855265625 112.19) " fill="rgb(58, 179, 219)" stroke="rgb(58, 58, 219)" stroke-width="0.048" data-glyph-w="18.545439453125" data-glyph-h="29.936435546875" data-glyph-ascender="24.07259765625" data-glyph-descender="-5.863837890625"></path><path d="M10.49-15.18L21.42-15.18Q21.59-14.27 21.59-13.33L21.59-13.33Q21.59-9.02 18.55-5.99L18.55-5.99Q15.52-2.95 11.21-2.95L11.21-2.95Q6.92-2.95 3.87-5.99L3.87-5.99Q0.84-9.02 0.84-13.33L0.84-13.33Q0.84-17.62 3.87-20.66L3.87-20.66Q6.92-23.71 11.21-23.71L11.21-23.71Q16.05-23.71 19.16-19.99L19.16-19.99L16.31-17.61Q14.31-19.98 11.21-19.98L11.21-19.98Q8.46-19.98 6.51-18.03L6.51-18.03Q4.56-16.08 4.56-13.33L4.56-13.33Q4.56-10.56 6.51-8.61L6.51-8.61Q8.46-6.66 11.21-6.66L11.21-6.66Q13.97-6.66 15.92-8.61L15.92-8.61Q17.17-9.86 17.62-11.46L17.62-11.46L10.49-11.46L10.49-15.18Z" transform="translate(185.793992109375 112.19) " fill="rgb(58, 179, 219)" stroke="rgb(58, 58, 219)" stroke-width="0.048" data-glyph-w="22.431284179687502" data-glyph-h="29.936435546875" data-glyph-ascender="24.07259765625" data-glyph-descender="-5.863837890625"></path><path d="" transform="translate(208.22527628906252 112.19) " fill="rgb(58, 179, 219)" stroke="rgb(58, 58, 219)" stroke-width="0.048" data-glyph-w="11.43454" data-glyph-h="28.73" data-glyph-ascender="25.282400000000003" data-glyph-descender="-3.4476000000000004"></path><path d="M13.43-10.31L13.43-23.34L17.14-23.34L17.14-3.31L13.48-3.31L5.12-16.34L5.12-3.31L1.40-3.31L1.40-23.34L5.06-23.34L13.43-10.31Z" transform="translate(219.65981628906252 112.19) " fill="rgb(58, 179, 219)" stroke="rgb(58, 58, 219)" stroke-width="0.048" data-glyph-w="18.545439453125" data-glyph-h="29.936435546875" data-glyph-ascender="24.07259765625" data-glyph-descender="-5.863837890625"></path><path d="M5.12-3.31L5.12-23.34L1.40-23.34L1.40-3.31L5.12-3.31Z" transform="translate(238.20525574218752 112.19) " fill="rgb(58, 179, 219)" stroke="rgb(58, 58, 219)" stroke-width="0.048" data-glyph-w="6.5231689453125" data-glyph-h="29.936435546875" data-glyph-ascender="24.07259765625" data-glyph-descender="-5.863837890625"></path><path d="M6.12-7.81L14.48-7.81L16.30-3.31L20.31-3.31L12.22-23.34L8.37-23.34L0.28-3.31L4.29-3.31L6.12-7.81ZM12.98-11.53L7.62-11.53L10.30-18.17L12.98-11.53Z" transform="translate(244.72842468750002 112.19) " fill="rgb(58, 179, 219)" stroke="rgb(58, 58, 219)" stroke-width="0.048" data-glyph-w="20.59357421875" data-glyph-h="29.936435546875" data-glyph-ascender="24.07259765625" data-glyph-descender="-5.863837890625"></path><path d="M13.43-10.31L13.43-23.34L17.14-23.34L17.14-3.31L13.48-3.31L5.12-16.34L5.12-3.31L1.40-3.31L1.40-23.34L5.06-23.34L13.43-10.31Z" transform="translate(265.32199890625003 112.19) " fill="rgb(58, 179, 219)" stroke="rgb(58, 58, 219)" stroke-width="0.048" data-glyph-w="18.545439453125" data-glyph-h="29.936435546875" data-glyph-ascender="24.07259765625" data-glyph-descender="-5.863837890625"></path></g></svg></g>
        </g>
  </svg>